<svg width="19" height="34" viewBox="0 0 19 34" fill="none" xmlns="http://www.w3.org/2000/svg">
<path d="M18.0612 30.9386C18.2006 31.078 18.3111 31.2434 18.3865 31.4255C18.462 31.6076 18.5008 31.8028 18.5008 31.9999C18.5008 32.197 18.462 32.3921 18.3865 32.5742C18.3111 32.7563 18.2006 32.9217 18.0612 33.0611C17.9218 33.2005 17.7564 33.311 17.5743 33.3864C17.3922 33.4619 17.1971 33.5007 17 33.5007C16.8029 33.5007 16.6077 33.4619 16.4256 33.3864C16.2435 33.311 16.0781 33.2005 15.9387 33.0611L0.938709 18.0611C0.799244 17.9218 0.688607 17.7564 0.61312 17.5743C0.537634 17.3922 0.498779 17.197 0.498779 16.9999C0.498779 16.8027 0.537634 16.6075 0.61312 16.4254C0.688607 16.2434 0.799244 16.0779 0.938709 15.9386L15.9387 0.938607C16.2202 0.657146 16.6019 0.499023 17 0.499023C17.398 0.499023 17.7797 0.657146 18.0612 0.938607C18.3427 1.22007 18.5008 1.60181 18.5008 1.99986C18.5008 2.3979 18.3427 2.77965 18.0612 3.06111L4.12058 16.9999L18.0612 30.9386Z" fill="#F8F9FB"/>
</svg>
