<svg width="14" height="18" viewBox="0 0 14 18" fill="none" xmlns="http://www.w3.org/2000/svg">
<path d="M7.00049 4C6.38242 4 5.77823 4.18328 5.26433 4.52666C4.75043 4.87004 4.34989 5.3581 4.11336 5.92911C3.87684 6.50013 3.81496 7.12847 3.93553 7.73466C4.05611 8.34085 4.35374 8.89767 4.79078 9.33471C5.22782 9.77175 5.78464 10.0694 6.39083 10.19C6.99702 10.3105 7.62536 10.2486 8.19637 10.0121C8.76739 9.7756 9.25545 9.37506 9.59883 8.86116C9.94221 8.34725 10.1255 7.74307 10.1255 7.125C10.1255 6.2962 9.79625 5.50134 9.2102 4.91529C8.62415 4.32924 7.82929 4 7.00049 4ZM7.00049 9C6.62965 9 6.26714 8.89003 5.95879 8.68401C5.65045 8.47798 5.41013 8.18514 5.26821 7.84253C5.1263 7.49992 5.08917 7.12292 5.16152 6.75921C5.23386 6.39549 5.41244 6.0614 5.67466 5.79917C5.93689 5.53695 6.27098 5.35837 6.63469 5.28603C6.99841 5.21368 7.37541 5.25081 7.71802 5.39273C8.06063 5.53464 8.35347 5.77496 8.55949 6.08331C8.76552 6.39165 8.87549 6.75416 8.87549 7.125C8.87549 7.62228 8.67794 8.09919 8.32631 8.45083C7.97468 8.80246 7.49777 9 7.00049 9ZM7.00049 0.25C5.17776 0.252068 3.43028 0.97706 2.14141 2.26592C0.852548 3.55479 0.127556 5.30227 0.125488 7.125C0.125488 9.57812 1.25908 12.1781 3.40674 14.6445C4.37175 15.759 5.45787 16.7626 6.64502 17.6367C6.75011 17.7103 6.87531 17.7498 7.00361 17.7498C7.13192 17.7498 7.25712 17.7103 7.36221 17.6367C8.54717 16.7623 9.63118 15.7587 10.5942 14.6445C12.7388 12.1781 13.8755 9.57812 13.8755 7.125C13.8734 5.30227 13.1484 3.55479 11.8596 2.26592C10.5707 0.97706 8.82322 0.252068 7.00049 0.25ZM7.00049 16.3438C5.70908 15.3281 1.37549 11.5977 1.37549 7.125C1.37549 5.63316 1.96812 4.20242 3.02301 3.14752C4.0779 2.09263 5.50865 1.5 7.00049 1.5C8.49233 1.5 9.92307 2.09263 10.978 3.14752C12.0329 4.20242 12.6255 5.63316 12.6255 7.125C12.6255 11.5961 8.29189 15.3281 7.00049 16.3438Z" fill="#F8F9FB"/>
</svg>
