<svg width="17" height="17" viewBox="0 0 17 17" fill="none" xmlns="http://www.w3.org/2000/svg">
<path d="M15.3727 11.3795L11.6922 9.73031L11.682 9.72562C11.491 9.6439 11.2825 9.61111 11.0756 9.6302C10.8687 9.6493 10.6698 9.71969 10.4969 9.835C10.4765 9.84844 10.457 9.86305 10.4383 9.87875L8.53673 11.4998C7.33204 10.9147 6.08829 9.68031 5.50313 8.49125L7.12657 6.56078C7.14219 6.54125 7.15704 6.52172 7.1711 6.50062C7.28394 6.3282 7.35239 6.13056 7.37039 5.92529C7.38838 5.72002 7.35534 5.51348 7.27423 5.32406V5.31469L5.62032 1.62797C5.51309 1.38052 5.3287 1.17438 5.09468 1.04034C4.86067 0.906297 4.58958 0.85153 4.32188 0.884217C3.26326 1.02352 2.29155 1.54341 1.58824 2.34679C0.884919 3.15017 0.498093 4.1821 0.500007 5.24984C0.500007 11.453 5.54688 16.4998 11.75 16.4998C12.8177 16.5018 13.8497 16.1149 14.6531 15.4116C15.4564 14.7083 15.9763 13.7366 16.1156 12.678C16.1484 12.4104 16.0937 12.1393 15.9598 11.9053C15.8259 11.6713 15.62 11.4869 15.3727 11.3795ZM11.75 15.2498C9.09873 15.2469 6.55687 14.1924 4.68214 12.3177C2.8074 10.443 1.7529 7.90112 1.75001 5.24984C1.74707 4.48694 2.02192 3.74906 2.52324 3.17399C3.02456 2.59892 3.71806 2.22599 4.47423 2.12484C4.47392 2.12796 4.47392 2.1311 4.47423 2.13422L6.11485 5.80609L4.50001 7.7389C4.48362 7.75776 4.46873 7.77788 4.45548 7.79906C4.33791 7.97947 4.26894 8.18718 4.25525 8.40208C4.24157 8.61697 4.28362 8.83176 4.37735 9.02562C5.08516 10.4733 6.54376 11.9209 8.00704 12.628C8.20232 12.7208 8.41835 12.7614 8.63403 12.7458C8.8497 12.7302 9.05763 12.6589 9.23751 12.5389C9.25757 12.5254 9.27687 12.5108 9.29532 12.4952L11.1945 10.8748L14.8664 12.5194C14.8664 12.5194 14.8727 12.5194 14.875 12.5194C14.7751 13.2766 14.4027 13.9715 13.8275 14.4741C13.2524 14.9766 12.5138 15.2524 11.75 15.2498Z" fill="#F8F9FB"/>
</svg>
