<svg width="10" height="18" viewBox="0 0 10 18" fill="none" xmlns="http://www.w3.org/2000/svg">
<path d="M0.469273 2.03021C0.39959 1.96052 0.344316 1.8778 0.306603 1.78675C0.268891 1.69571 0.24948 1.59813 0.24948 1.49958C0.24948 1.40104 0.268891 1.30345 0.306603 1.21241C0.344316 1.12136 0.39959 1.03864 0.469273 0.968956C0.538956 0.899275 0.621681 0.844 0.712726 0.806288C0.803771 0.768576 0.901352 0.749165 0.999898 0.749165C1.09844 0.749165 1.19603 0.768576 1.28707 0.806288C1.37812 0.844 1.46084 0.899275 1.53052 0.968956L9.03052 8.46896C9.10026 8.53861 9.15557 8.62133 9.19332 8.71238C9.23106 8.80343 9.25049 8.90102 9.25049 8.99958C9.25049 9.09814 9.23106 9.19574 9.19332 9.28679C9.15557 9.37784 9.10026 9.46055 9.03052 9.53021L1.53052 17.0302C1.38979 17.1709 1.19892 17.25 0.999898 17.25C0.800876 17.25 0.610003 17.1709 0.469273 17.0302C0.328543 16.8895 0.24948 16.6986 0.24948 16.4996C0.24948 16.3006 0.328543 16.1097 0.469273 15.969L7.43959 8.99958L0.469273 2.03021Z" fill="#F8F9FB"/>
</svg>
